<svg width="24" height="24" viewBox="0 0 24 24" fill="none" xmlns="http://www.w3.org/2000/svg">
<svg x="2.7910" y="2.7493" width="18.4180" height="18.5015" viewBox="0 0 21.42 21.5" preserveAspectRatio="none" overflow="visible"><path id="Vector" d="M11.61 15.25C11.61 14.8358 11.2742 14.5 10.86 14.5C10.4458 14.5 10.11 14.8358 10.11 15.25H10.86H11.61ZM10.11 17.35C10.11 17.7642 10.4458 18.1 10.86 18.1C11.2742 18.1 11.61 17.7642 11.61 17.35H10.86H10.11ZM5.86 20.75H5.11V21.5H5.86V20.75ZM15.86 20.75V21.5H16.61V20.75H15.86ZM4.86 20C4.44579 20 4.11 20.3358 4.11 20.75C4.11 21.1642 4.44579 21.5 4.86 21.5V20.75V20ZM16.86 21.5C17.2742 21.5 17.61 21.1642 17.61 20.75C17.61 20.3358 17.2742 20 16.86 20V20.75V21.5ZM4.18 10.4L3.95142 11.1143C4.23133 11.2039 4.53777 11.1217 4.73531 10.9041C4.93286 10.6865 4.98509 10.3736 4.86894 10.1036L4.18 10.4ZM2.25 9.2L1.69253 9.70172C1.70132 9.7115 1.71037 9.72103 1.71967 9.73033L2.25 9.2ZM3.9 3.1L4.5878 3.39904C4.6886 3.16721 4.66582 2.90019 4.52721 2.68877C4.3886 2.47736 4.1528 2.35 3.9 2.35V3.1ZM3.6 7.6H4.35H3.6ZM17.24 10.4L16.5511 10.1036C16.4349 10.3736 16.4871 10.6865 16.6847 10.9041C16.8822 11.1217 17.1887 11.2039 17.4686 11.1143L17.24 10.4ZM19.17 9.2L19.7003 9.73033C19.7096 9.72103 19.7187 9.7115 19.7275 9.70172L19.17 9.2ZM17.52 3.1V2.35C17.2672 2.35 17.0314 2.47736 16.8928 2.68877C16.7542 2.90019 16.7314 3.16721 16.8322 3.39904L17.52 3.1ZM17.82 7.6H18.57H17.82ZM10.86 15.25H10.11V17.35H10.86H11.61V15.25H10.86ZM5.86 20.75V21.5H15.86V20.75V20H5.86V20.75ZM15.86 20.75H16.61V19.75H15.86H15.11V20.75H15.86ZM15.86 19.75H16.61C16.61 18.2358 15.3742 17 13.86 17V17.75V18.5C14.5458 18.5 15.11 19.0642 15.11 19.75H15.86ZM13.86 17.75V17H7.86V17.75V18.5H13.86V17.75ZM7.86 17.75V17C6.34579 17 5.11 18.2358 5.11 19.75H5.86H6.61C6.61 19.0642 7.17421 18.5 7.86 18.5V17.75ZM5.86 19.75H5.11V20.75H5.86H6.61V19.75H5.86ZM4.86 20.75V21.5H16.86V20.75V20H4.86V20.75ZM10.71 14.75V14C7.25421 14 4.46 11.2058 4.46 7.75H3.71H2.96C2.96 12.0342 6.42579 15.5 10.71 15.5V14.75ZM3.71 7.75H4.46V4.75H3.71H2.96V7.75H3.71ZM3.71 4.75H4.46C4.46 2.95421 5.91421 1.5 7.71 1.5V0.75V0C5.08579 0 2.96 2.12579 2.96 4.75H3.71ZM7.71 0.75V1.5H13.71V0.75V0H7.71V0.75ZM13.71 0.75V1.5C15.5058 1.5 16.96 2.95421 16.96 4.75H17.71H18.46C18.46 2.12579 16.3342 0 13.71 0V0.75ZM17.71 4.75H16.96V7.75H17.71H18.46V4.75H17.71ZM17.71 7.75H16.96C16.96 11.2058 14.1658 14 10.71 14V14.75V15.5C14.9942 15.5 18.46 12.0342 18.46 7.75H17.71ZM4.18 10.4L4.40858 9.68568C3.78839 9.48722 3.22858 9.11792 2.78033 8.66967L2.25 9.2L1.71967 9.73033C2.31142 10.3221 3.07161 10.8328 3.95142 11.1143L4.18 10.4ZM2.25 9.2L2.80747 8.69828C1.99649 7.79719 1.5 6.76842 1.5 5.6H0.75H0C0 7.23158 0.703509 8.60281 1.69253 9.70172L2.25 9.2ZM0.75 5.6H1.5C1.5 4.61421 2.26421 3.85 3.25 3.85V3.1V2.35C1.43579 2.35 0 3.78579 0 5.6H0.75ZM3.25 3.1V3.85H3.9V3.1V2.35H3.25V3.1ZM3.9 3.1L3.2122 2.80096C2.96773 3.36323 2.85 3.9761 2.85 4.6H3.6H4.35C4.35 4.1639 4.43227 3.75677 4.5878 3.39904L3.9 3.1ZM3.6 4.6H2.85V7.6H3.6H4.35V4.6H3.6ZM3.6 7.6H2.85C2.85 8.70699 3.08283 9.74755 3.49106 10.6964L4.18 10.4L4.86894 10.1036C4.53717 9.33245 4.35 8.49301 4.35 7.6H3.6ZM17.24 10.4L17.4686 11.1143C18.3484 10.8328 19.1086 10.3221 19.7003 9.73033L19.17 9.2L18.6397 8.66967C18.1914 9.11792 17.6316 9.48722 17.0114 9.68568L17.24 10.4ZM19.17 9.2L19.7275 9.70172C20.7165 8.60281 21.42 7.23158 21.42 5.6H20.67H19.92C19.92 6.76842 19.4235 7.79719 18.6125 8.69828L19.17 9.2ZM20.67 5.6H21.42C21.42 3.78579 19.9842 2.35 18.17 2.35V3.1V3.85C19.1558 3.85 19.92 4.61421 19.92 5.6H20.67ZM18.17 3.1V2.35H17.52V3.1V3.85H18.17V3.1ZM17.52 3.1L16.8322 3.39904C16.9877 3.75678 17.07 4.1639 17.07 4.6H17.82H18.57C18.57 3.9761 18.4523 3.36322 18.2078 2.80096L17.52 3.1ZM17.82 4.6H17.07V7.6H17.82H18.57V4.6H17.82ZM17.82 7.6H17.07C17.07 8.49301 16.8828 9.33245 16.5511 10.1036L17.24 10.4L17.9289 10.6964C18.3372 9.74755 18.57 8.70699 18.57 7.6H17.82Z" fill="var(--stroke-0, #172B4D)"/></svg>
</svg>