<svg width="24" height="24" viewBox="0 0 24 24" fill="none" xmlns="http://www.w3.org/2000/svg">
<svg x="3.8528" y="2.7488" width="16.3064" height="18.6512" viewBox="0 0 19.3056 21.65" preserveAspectRatio="none" overflow="visible"><path id="Vector" d="M10.3975 5.19C10.3975 4.77579 10.0617 4.44 9.64747 4.44C9.23326 4.44 8.89747 4.77579 8.89747 5.19H9.64747H10.3975ZM8.89747 8.52C8.89747 8.93421 9.23326 9.27 9.64747 9.27C10.0617 9.27 10.3975 8.93421 10.3975 8.52H9.64747H8.89747ZM2.37747 11.79L1.73533 11.4025L1.73408 11.4046L2.37747 11.79ZM1.10747 13.91L0.464081 13.5246L0.463053 13.5263L1.10747 13.91ZM2.30747 17.16L2.0703 17.8715L2.07075 17.8717L2.30747 17.16ZM17.0375 17.16L17.2742 17.8717L17.2746 17.8715L17.0375 17.16ZM18.2375 13.91L18.8811 13.5249L18.8809 13.5246L18.2375 13.91ZM16.9675 11.79L17.6109 11.4046L17.6096 11.4025L16.9675 11.79ZM16.3375 7.41H17.0875L17.0875 7.40795L16.3375 7.41ZM9.64747 5.19H8.89747V8.52H9.64747H10.3975V5.19H9.64747ZM9.66747 0.75V0C5.57326 0 2.25747 3.31579 2.25747 7.41H3.00747H3.75747C3.75747 4.14421 6.40169 1.5 9.66747 1.5V0.75ZM3.00747 7.41H2.25747V9.51H3.00747H3.75747V7.41H3.00747ZM3.00747 9.51H2.25747C2.25747 9.76181 2.20309 10.1169 2.10071 10.4881C1.99821 10.8598 1.8635 11.1901 1.73533 11.4025L2.37747 11.79L3.01961 12.1775C3.24144 11.8099 3.42173 11.3402 3.54673 10.8869C3.67185 10.4331 3.75747 9.93819 3.75747 9.51H3.00747ZM2.37747 11.79L1.73408 11.4046L0.464084 13.5246L1.10747 13.91L1.75086 14.2954L3.02086 12.1754L2.37747 11.79ZM1.10747 13.91L0.463053 13.5263C-0.0316978 14.3572 -0.131778 15.2854 0.171443 16.1062C0.474782 16.9273 1.15419 17.5661 2.0703 17.8715L2.30747 17.16L2.54464 16.4485C2.02075 16.2739 1.71016 15.9427 1.5785 15.5863C1.44672 15.2296 1.46664 14.7728 1.75189 14.2937L1.10747 13.91ZM2.30747 17.16L2.07075 17.8717C7.00442 19.5128 12.3405 19.5128 17.2742 17.8717L17.0375 17.16L16.8007 16.4483C12.1744 17.9872 7.17052 17.9872 2.5442 16.4483L2.30747 17.16ZM17.0375 17.16L17.2746 17.8715C19.0822 17.269 19.8557 15.1538 18.8811 13.5249L18.2375 13.91L17.5939 14.2951C18.0792 15.1062 17.6927 16.151 16.8003 16.4485L17.0375 17.16ZM18.2375 13.91L18.8809 13.5246L17.6109 11.4046L16.9675 11.79L16.3241 12.1754L17.5941 14.2954L18.2375 13.91ZM16.9675 11.79L17.6096 11.4025C17.482 11.191 17.3472 10.8589 17.2444 10.4849C17.1417 10.1114 17.0875 9.75638 17.0875 9.51H16.3375H15.5875C15.5875 9.93362 15.6733 10.4286 15.7981 10.8826C15.9227 11.3361 16.1029 11.809 16.3253 12.1775L16.9675 11.79ZM16.3375 9.51H17.0875V7.41H16.3375H15.5875V9.51H16.3375ZM16.3375 7.41L17.0875 7.40795C17.0763 3.33574 13.7421 0 9.66747 0V0.75V1.5C12.9129 1.5 15.5786 4.16426 15.5875 7.41205L16.3375 7.41ZM12.9775 17.57H12.2275C12.2275 18.9858 11.0633 20.15 9.64747 20.15V20.9V21.65C11.8917 21.65 13.7275 19.8142 13.7275 17.57H12.9775ZM9.64747 20.9V20.15C8.94739 20.15 8.29513 19.857 7.8278 19.3897L7.29747 19.92L6.76714 20.4503C7.49981 21.183 8.52755 21.65 9.64747 21.65V20.9ZM7.29747 19.92L7.8278 19.3897C7.36047 18.9223 7.06747 18.2701 7.06747 17.57H6.31747H5.56747C5.56747 18.6899 6.03447 19.7177 6.76714 20.4503L7.29747 19.92Z" fill="var(--stroke-0, #172B4D)"/></svg>
</svg>