<svg width="24" height="24" viewBox="0 0 24 24" fill="none" xmlns="http://www.w3.org/2000/svg">
<svg x="2.7493" y="2.7493" width="18.5015" height="18.5015" viewBox="0 0 21.5 21.5" preserveAspectRatio="none" overflow="visible"><path id="Vector" d="M13.28 8.22L8.22 13.28M13.28 8.22C12.63 7.57 11.74 7.17 10.75 7.17C8.77 7.17 7.17 8.77 7.17 10.75C7.17 11.74 7.57 12.63 8.22 13.28M13.28 8.22L20.75 0.75M8.22 13.28L0.75 20.75M16.57 4.52C14.82 3.2 12.82 2.48 10.75 2.48C7.22 2.48 3.93 4.56 1.64 8.16C0.74 9.57 0.74 11.94 1.64 13.35C2.43 14.59 3.35 15.66 4.35 16.52M7.17 18.28C8.31 18.76 9.52 19.02 10.75 19.02C14.28 19.02 17.57 16.94 19.86 13.34C20.76 11.93 20.76 9.56 19.86 8.15C19.53 7.63 19.17 7.14 18.8 6.68M14.26 11.45C14 12.86 12.85 14.01 11.44 14.27" stroke="var(--stroke-0, #172B4D)" stroke-width="1.5" stroke-linecap="round" stroke-linejoin="round"/></svg>
</svg>