<svg preserveAspectRatio="none" width="100%" height="100%" overflow="visible" style="display: block;" viewBox="0 0 14.5333 14.5733" fill="none" xmlns="http://www.w3.org/2000/svg">
<path id="Vector" d="M5.26667 13.9333H3.93333C1.26667 13.9333 0.6 13.2667 0.6 10.6V3.93333C0.6 1.26667 1.26667 0.6 3.93333 0.6H4.93333C5.93333 0.6 6.15335 0.893342 6.53335 1.40001L7.53335 2.73334C7.78668 3.06667 7.93333 3.26667 8.6 3.26667H10.6C13.2667 3.26667 13.9333 3.93333 13.9333 6.6V7.93333M8.44 11.48C6.87333 11.5933 6.87333 13.86 8.44 13.9733H12.1467C12.5933 13.9733 13.0333 13.8067 13.36 13.5067C14.46 12.5467 13.8733 10.6267 12.4267 10.4467C11.9067 7.32 7.38668 8.50667 8.45334 11.4867" stroke="var(--stroke-0, #292D32)" stroke-width="1.2" stroke-miterlimit="10" stroke-linecap="round" stroke-linejoin="round"/>
</svg>
